<svg width="97" height="25" viewBox="0 0 97 25" fill="none" xmlns="http://www.w3.org/2000/svg">
<rect width="96.23" height="24.8" rx="4" fill="#FFDAD6"/>
<rect x="8" y="8.39001" width="8" height="8" rx="4" fill="#BA1A1A"/>
<path d="M20.888 16V14.284H22.304V9.316H20.888V7.6H25.772V9.316H24.344V14.284H25.772V16H20.888ZM27.4963 16V9.628H29.3203L29.3803 10.78L29.1283 10.792C29.2243 10.584 29.3443 10.4 29.4883 10.24C29.6403 10.08 29.8083 9.948 29.9923 9.844C30.1843 9.732 30.3803 9.648 30.5803 9.592C30.7883 9.536 30.9963 9.508 31.2043 9.508C31.5163 9.508 31.8003 9.556 32.0563 9.652C32.3123 9.748 32.5363 9.904 32.7283 10.12C32.9203 10.328 33.0723 10.612 33.1843 10.972L32.8843 10.948L32.9803 10.756C33.0843 10.564 33.2163 10.392 33.3763 10.24C33.5443 10.08 33.7283 9.948 33.9283 9.844C34.1283 9.732 34.3363 9.648 34.5523 9.592C34.7683 9.536 34.9763 9.508 35.1763 9.508C35.6803 9.508 36.1003 9.608 36.4363 9.808C36.7723 10 37.0243 10.292 37.1923 10.684C37.3683 11.076 37.4563 11.552 37.4563 12.112V16H35.5243V12.268C35.5243 12.012 35.4883 11.8 35.4163 11.632C35.3443 11.464 35.2363 11.34 35.0923 11.26C34.9563 11.172 34.7843 11.128 34.5763 11.128C34.4083 11.128 34.2523 11.156 34.1083 11.212C33.9723 11.268 33.8523 11.344 33.7483 11.44C33.6523 11.536 33.5763 11.648 33.5203 11.776C33.4643 11.904 33.4362 12.048 33.4362 12.208V16H31.5043V12.256C31.5043 12.016 31.4683 11.812 31.3963 11.644C31.3243 11.476 31.2163 11.348 31.0723 11.26C30.9283 11.172 30.7603 11.128 30.5683 11.128C30.4003 11.128 30.2443 11.156 30.1003 11.212C29.9643 11.268 29.8443 11.344 29.7402 11.44C29.6443 11.536 29.5683 11.648 29.5123 11.776C29.4563 11.904 29.4283 12.044 29.4283 12.196V16H27.4963ZM39.0512 18.64V9.628H40.8752L40.9472 11.056L40.5872 10.948C40.6432 10.684 40.7792 10.444 40.9952 10.228C41.2112 10.012 41.4832 9.84 41.8112 9.712C42.1472 9.576 42.4992 9.508 42.8672 9.508C43.4112 9.508 43.8952 9.652 44.3192 9.94C44.7432 10.22 45.0752 10.608 45.3152 11.104C45.5632 11.592 45.6872 12.16 45.6872 12.808C45.6872 13.448 45.5632 14.016 45.3152 14.512C45.0752 15.008 44.7392 15.4 44.3072 15.688C43.8832 15.968 43.3952 16.108 42.8432 16.108C42.4832 16.108 42.1392 16.04 41.8112 15.904C41.4832 15.768 41.2072 15.584 40.9832 15.352C40.7592 15.12 40.6112 14.868 40.5392 14.596L40.9832 14.428V18.64H39.0512ZM42.3752 14.488C42.6632 14.488 42.9152 14.42 43.1312 14.284C43.3472 14.14 43.5152 13.944 43.6352 13.696C43.7552 13.448 43.8152 13.152 43.8152 12.808C43.8152 12.472 43.7552 12.18 43.6352 11.932C43.5152 11.676 43.3472 11.48 43.1312 11.344C42.9232 11.2 42.6712 11.128 42.3752 11.128C42.0792 11.128 41.8232 11.196 41.6072 11.332C41.3912 11.468 41.2232 11.664 41.1032 11.92C40.9832 12.176 40.9232 12.472 40.9232 12.808C40.9232 13.152 40.9832 13.448 41.1032 13.696C41.2232 13.944 41.3912 14.14 41.6072 14.284C41.8232 14.42 42.0792 14.488 42.3752 14.488ZM49.9614 16.12C49.2974 16.12 48.7054 15.976 48.1854 15.688C47.6734 15.4 47.2654 15.008 46.9614 14.512C46.6654 14.016 46.5174 13.448 46.5174 12.808C46.5174 12.168 46.6654 11.6 46.9614 11.104C47.2654 10.608 47.6734 10.216 48.1854 9.928C48.7054 9.64 49.2974 9.496 49.9614 9.496C50.6254 9.496 51.2134 9.64 51.7254 9.928C52.2454 10.216 52.6534 10.608 52.9494 11.104C53.2454 11.6 53.3934 12.168 53.3934 12.808C53.3934 13.448 53.2454 14.016 52.9494 14.512C52.6534 15.008 52.2454 15.4 51.7254 15.688C51.2134 15.976 50.6254 16.12 49.9614 16.12ZM49.9614 14.464C50.2494 14.464 50.5054 14.392 50.7294 14.248C50.9534 14.104 51.1294 13.908 51.2574 13.66C51.3854 13.412 51.4454 13.128 51.4374 12.808C51.4454 12.488 51.3854 12.204 51.2574 11.956C51.1294 11.7 50.9534 11.5 50.7294 11.356C50.5054 11.212 50.2494 11.14 49.9614 11.14C49.6734 11.14 49.4134 11.212 49.1814 11.356C48.9574 11.5 48.7814 11.7 48.6534 11.956C48.5254 12.204 48.4654 12.488 48.4734 12.808C48.4654 13.128 48.5254 13.412 48.6534 13.66C48.7814 13.908 48.9574 14.104 49.1814 14.248C49.4134 14.392 49.6734 14.464 49.9614 14.464ZM54.6489 16V9.628H56.4729L56.5569 11.704L56.1969 11.308C56.2929 10.964 56.4489 10.656 56.6649 10.384C56.8889 10.112 57.1489 9.896 57.4449 9.736C57.7409 9.576 58.0569 9.496 58.3929 9.496C58.5369 9.496 58.6689 9.508 58.7889 9.532C58.9169 9.556 59.0329 9.584 59.1369 9.616L58.6089 11.74C58.5209 11.684 58.4009 11.64 58.2489 11.608C58.1049 11.568 57.9529 11.548 57.7929 11.548C57.6169 11.548 57.4529 11.58 57.3009 11.644C57.1489 11.7 57.0209 11.784 56.9169 11.896C56.8129 12.008 56.7289 12.14 56.6649 12.292C56.6089 12.444 56.5809 12.616 56.5809 12.808V16H54.6489ZM60.8722 16V8.02H62.7922V16H60.8722ZM59.7442 11.308V9.628H64.0282V11.308H59.7442ZM67.4188 16.108C66.8828 16.108 66.4028 15.968 65.9788 15.688C65.5628 15.4 65.2308 15.008 64.9828 14.512C64.7348 14.008 64.6108 13.44 64.6108 12.808C64.6108 12.16 64.7348 11.588 64.9828 11.092C65.2308 10.596 65.5708 10.208 66.0028 9.928C66.4348 9.64 66.9268 9.496 67.4788 9.496C67.7828 9.496 68.0588 9.54 68.3068 9.628C68.5628 9.716 68.7868 9.84 68.9788 10C69.1708 10.152 69.3348 10.332 69.4708 10.54C69.6068 10.74 69.7068 10.956 69.7708 11.188L69.3748 11.14V9.628H71.2828V16H69.3388V14.464L69.7708 14.452C69.7068 14.676 69.6028 14.888 69.4588 15.088C69.3148 15.288 69.1388 15.464 68.9308 15.616C68.7228 15.768 68.4908 15.888 68.2348 15.976C67.9788 16.064 67.7068 16.108 67.4188 16.108ZM67.9468 14.488C68.2428 14.488 68.4988 14.42 68.7148 14.284C68.9308 14.148 69.0988 13.956 69.2188 13.708C69.3388 13.452 69.3988 13.152 69.3988 12.808C69.3988 12.464 69.3388 12.168 69.2188 11.92C69.0988 11.664 68.9308 11.468 68.7148 11.332C68.4988 11.188 68.2428 11.116 67.9468 11.116C67.6588 11.116 67.4068 11.188 67.1908 11.332C66.9828 11.468 66.8188 11.664 66.6988 11.92C66.5788 12.168 66.5188 12.464 66.5188 12.808C66.5188 13.152 66.5788 13.452 66.6988 13.708C66.8188 13.956 66.9828 14.148 67.1908 14.284C67.4068 14.42 67.6588 14.488 67.9468 14.488ZM72.977 16V9.628H74.801L74.861 10.924L74.477 11.068C74.565 10.78 74.721 10.52 74.945 10.288C75.177 10.048 75.453 9.856 75.773 9.712C76.093 9.568 76.429 9.496 76.781 9.496C77.261 9.496 77.665 9.596 77.993 9.796C78.321 9.988 78.569 10.28 78.737 10.672C78.905 11.056 78.989 11.528 78.989 12.088V16H77.057V12.244C77.057 11.988 77.021 11.776 76.949 11.608C76.877 11.44 76.765 11.316 76.613 11.236C76.469 11.148 76.289 11.108 76.073 11.116C75.905 11.116 75.749 11.144 75.605 11.2C75.461 11.248 75.337 11.324 75.233 11.428C75.129 11.524 75.045 11.636 74.981 11.764C74.925 11.892 74.897 12.032 74.897 12.184V16H73.949C73.725 16 73.533 16 73.373 16C73.213 16 73.081 16 72.977 16ZM81.1222 16V8.02H83.0422V16H81.1222ZM79.9942 11.308V9.628H84.2782V11.308H79.9942ZM85.7714 12.94C85.7074 12.452 85.6434 11.948 85.5794 11.428C85.5154 10.908 85.4634 10.392 85.4234 9.88C85.3834 9.368 85.3634 8.876 85.3634 8.404V7.468H87.3914V8.404C87.3914 8.884 87.3714 9.384 87.3314 9.904C87.2914 10.424 87.2394 10.944 87.1754 11.464C87.1114 11.976 87.0434 12.468 86.9714 12.94H85.7714ZM86.3714 16.132C86.0434 16.132 85.7874 16.04 85.6034 15.856C85.4194 15.672 85.3274 15.408 85.3274 15.064C85.3274 14.744 85.4234 14.484 85.6154 14.284C85.8074 14.084 86.0594 13.984 86.3714 13.984C86.6994 13.984 86.9514 14.08 87.1274 14.272C87.3114 14.456 87.4034 14.72 87.4034 15.064C87.4034 15.376 87.3074 15.632 87.1154 15.832C86.9234 16.032 86.6754 16.132 86.3714 16.132Z" fill="#BA1A1A"/>
</svg>
