<svg width="74" height="25" viewBox="0 0 74 25" fill="none" xmlns="http://www.w3.org/2000/svg">
<rect width="73.94" height="24.8" rx="4" fill="#FFF2B4"/>
<rect x="8" y="8.39001" width="8" height="8" rx="4" fill="#A18500"/>
<path d="M21.056 16V7.6H22.88L27.284 13.6L26.888 13.54C26.848 13.276 26.816 13.024 26.792 12.784C26.768 12.544 26.744 12.308 26.72 12.076C26.704 11.844 26.688 11.608 26.672 11.368C26.664 11.128 26.656 10.868 26.648 10.588C26.648 10.308 26.648 10.004 26.648 9.676V7.6H28.628V16H26.78L22.184 9.808L22.796 9.892C22.836 10.276 22.868 10.604 22.892 10.876C22.924 11.14 22.948 11.376 22.964 11.584C22.988 11.792 23.004 11.98 23.012 12.148C23.02 12.316 23.024 12.484 23.024 12.652C23.032 12.812 23.036 12.992 23.036 13.192V16H21.056ZM33.5317 16.12C32.8677 16.12 32.2757 15.976 31.7557 15.688C31.2437 15.4 30.8357 15.008 30.5317 14.512C30.2357 14.016 30.0877 13.448 30.0877 12.808C30.0877 12.168 30.2357 11.6 30.5317 11.104C30.8357 10.608 31.2437 10.216 31.7557 9.928C32.2757 9.64 32.8677 9.496 33.5317 9.496C34.1957 9.496 34.7837 9.64 35.2957 9.928C35.8157 10.216 36.2237 10.608 36.5197 11.104C36.8157 11.6 36.9637 12.168 36.9637 12.808C36.9637 13.448 36.8157 14.016 36.5197 14.512C36.2237 15.008 35.8157 15.4 35.2957 15.688C34.7837 15.976 34.1957 16.12 33.5317 16.12ZM33.5317 14.464C33.8197 14.464 34.0757 14.392 34.2997 14.248C34.5237 14.104 34.6997 13.908 34.8277 13.66C34.9557 13.412 35.0157 13.128 35.0077 12.808C35.0157 12.488 34.9557 12.204 34.8277 11.956C34.6997 11.7 34.5237 11.5 34.2997 11.356C34.0757 11.212 33.8197 11.14 33.5317 11.14C33.2437 11.14 32.9837 11.212 32.7517 11.356C32.5277 11.5 32.3517 11.7 32.2237 11.956C32.0957 12.204 32.0357 12.488 32.0437 12.808C32.0357 13.128 32.0957 13.412 32.2237 13.66C32.3517 13.908 32.5277 14.104 32.7517 14.248C32.9837 14.392 33.2437 14.464 33.5317 14.464ZM38.2192 16V9.628H40.0432L40.1272 11.704L39.7672 11.308C39.8632 10.964 40.0192 10.656 40.2352 10.384C40.4592 10.112 40.7192 9.896 41.0152 9.736C41.3112 9.576 41.6272 9.496 41.9632 9.496C42.1072 9.496 42.2392 9.508 42.3592 9.532C42.4872 9.556 42.6032 9.584 42.7072 9.616L42.1792 11.74C42.0912 11.684 41.9712 11.64 41.8192 11.608C41.6752 11.568 41.5232 11.548 41.3632 11.548C41.1872 11.548 41.0232 11.58 40.8712 11.644C40.7192 11.7 40.5912 11.784 40.4872 11.896C40.3832 12.008 40.2992 12.14 40.2352 12.292C40.1792 12.444 40.1512 12.616 40.1512 12.808V16H38.2192ZM43.6681 16V9.628H45.4921L45.5521 10.78L45.3001 10.792C45.3961 10.584 45.5161 10.4 45.6601 10.24C45.8121 10.08 45.9801 9.948 46.1641 9.844C46.3561 9.732 46.5521 9.648 46.7521 9.592C46.9601 9.536 47.1681 9.508 47.3761 9.508C47.6881 9.508 47.9721 9.556 48.2281 9.652C48.4841 9.748 48.7081 9.904 48.9001 10.12C49.0921 10.328 49.2441 10.612 49.3561 10.972L49.0561 10.948L49.1521 10.756C49.2561 10.564 49.3881 10.392 49.5481 10.24C49.7161 10.08 49.9001 9.948 50.1001 9.844C50.3001 9.732 50.5081 9.648 50.7241 9.592C50.9401 9.536 51.1481 9.508 51.3481 9.508C51.8521 9.508 52.2721 9.608 52.6081 9.808C52.9441 10 53.1961 10.292 53.3641 10.684C53.5401 11.076 53.6281 11.552 53.6281 12.112V16H51.6961V12.268C51.6961 12.012 51.6601 11.8 51.5881 11.632C51.5161 11.464 51.4081 11.34 51.2641 11.26C51.1281 11.172 50.9561 11.128 50.7481 11.128C50.5801 11.128 50.4241 11.156 50.2801 11.212C50.1441 11.268 50.0241 11.344 49.9201 11.44C49.8241 11.536 49.7481 11.648 49.6921 11.776C49.6361 11.904 49.6081 12.048 49.6081 12.208V16H47.6761V12.256C47.6761 12.016 47.6401 11.812 47.5681 11.644C47.4961 11.476 47.3881 11.348 47.2441 11.26C47.1001 11.172 46.9321 11.128 46.7401 11.128C46.5721 11.128 46.4161 11.156 46.2721 11.212C46.1361 11.268 46.0161 11.344 45.9121 11.44C45.8161 11.536 45.7401 11.648 45.6841 11.776C45.6281 11.904 45.6001 12.044 45.6001 12.196V16H43.6681ZM57.5751 16.108C57.0391 16.108 56.5591 15.968 56.1351 15.688C55.7191 15.4 55.3871 15.008 55.1391 14.512C54.8911 14.008 54.7671 13.44 54.7671 12.808C54.7671 12.16 54.8911 11.588 55.1391 11.092C55.3871 10.596 55.7271 10.208 56.1591 9.928C56.5911 9.64 57.0831 9.496 57.6351 9.496C57.9391 9.496 58.2151 9.54 58.4631 9.628C58.7191 9.716 58.9431 9.84 59.1351 10C59.3271 10.152 59.4911 10.332 59.6271 10.54C59.7631 10.74 59.8631 10.956 59.9271 11.188L59.5311 11.14V9.628H61.4391V16H59.4951V14.464L59.9271 14.452C59.8631 14.676 59.7591 14.888 59.6151 15.088C59.4711 15.288 59.2951 15.464 59.0871 15.616C58.8791 15.768 58.6471 15.888 58.3911 15.976C58.1351 16.064 57.8631 16.108 57.5751 16.108ZM58.1031 14.488C58.3991 14.488 58.6551 14.42 58.8711 14.284C59.0871 14.148 59.2551 13.956 59.3751 13.708C59.4951 13.452 59.5551 13.152 59.5551 12.808C59.5551 12.464 59.4951 12.168 59.3751 11.92C59.2551 11.664 59.0871 11.468 58.8711 11.332C58.6551 11.188 58.3991 11.116 58.1031 11.116C57.8151 11.116 57.5631 11.188 57.3471 11.332C57.1391 11.468 56.9751 11.664 56.8551 11.92C56.7351 12.168 56.6751 12.464 56.6751 12.808C56.6751 13.152 56.7351 13.452 56.8551 13.708C56.9751 13.956 57.1391 14.148 57.3471 14.284C57.5631 14.42 57.8151 14.488 58.1031 14.488ZM63.1453 16V7.12H65.0653V16H63.1453Z" fill="#A18500"/>
</svg>
