<svg width="119" height="25" viewBox="0 0 119 25" fill="none" xmlns="http://www.w3.org/2000/svg">
<rect width="118.53" height="24.8" rx="4" fill="#CCF2B4"/>
<rect x="8" y="8.39001" width="8" height="8" rx="4" fill="#327606"/>
<path d="M21.056 16V7.6H22.88L27.284 13.6L26.888 13.54C26.848 13.276 26.816 13.024 26.792 12.784C26.768 12.544 26.744 12.308 26.72 12.076C26.704 11.844 26.688 11.608 26.672 11.368C26.664 11.128 26.656 10.868 26.648 10.588C26.648 10.308 26.648 10.004 26.648 9.676V7.6H28.628V16H26.78L22.184 9.808L22.796 9.892C22.836 10.276 22.868 10.604 22.892 10.876C22.924 11.14 22.948 11.376 22.964 11.584C22.988 11.792 23.004 11.98 23.012 12.148C23.02 12.316 23.024 12.484 23.024 12.652C23.032 12.812 23.036 12.992 23.036 13.192V16H21.056ZM33.5317 16.12C32.8677 16.12 32.2757 15.976 31.7557 15.688C31.2437 15.4 30.8357 15.008 30.5317 14.512C30.2357 14.016 30.0877 13.448 30.0877 12.808C30.0877 12.168 30.2357 11.6 30.5317 11.104C30.8357 10.608 31.2437 10.216 31.7557 9.928C32.2757 9.64 32.8677 9.496 33.5317 9.496C34.1957 9.496 34.7837 9.64 35.2957 9.928C35.8157 10.216 36.2237 10.608 36.5197 11.104C36.8157 11.6 36.9637 12.168 36.9637 12.808C36.9637 13.448 36.8157 14.016 36.5197 14.512C36.2237 15.008 35.8157 15.4 35.2957 15.688C34.7837 15.976 34.1957 16.12 33.5317 16.12ZM33.5317 14.464C33.8197 14.464 34.0757 14.392 34.2997 14.248C34.5237 14.104 34.6997 13.908 34.8277 13.66C34.9557 13.412 35.0157 13.128 35.0077 12.808C35.0157 12.488 34.9557 12.204 34.8277 11.956C34.6997 11.7 34.5237 11.5 34.2997 11.356C34.0757 11.212 33.8197 11.14 33.5317 11.14C33.2437 11.14 32.9837 11.212 32.7517 11.356C32.5277 11.5 32.3517 11.7 32.2237 11.956C32.0957 12.204 32.0357 12.488 32.0437 12.808C32.0357 13.128 32.0957 13.412 32.2237 13.66C32.3517 13.908 32.5277 14.104 32.7517 14.248C32.9837 14.392 33.2437 14.464 33.5317 14.464ZM38.7472 16V8.02H40.6672V16H38.7472ZM37.6192 11.308V9.628H41.9032V11.308H37.6192ZM46.8802 16V14.284H48.2962V9.316H46.8802V7.6H51.7642V9.316H50.3362V14.284H51.7642V16H46.8802ZM53.4884 16V9.628H55.3124L55.3724 10.78L55.1204 10.792C55.2164 10.584 55.3364 10.4 55.4804 10.24C55.6324 10.08 55.8004 9.948 55.9844 9.844C56.1764 9.732 56.3724 9.648 56.5724 9.592C56.7804 9.536 56.9884 9.508 57.1964 9.508C57.5084 9.508 57.7924 9.556 58.0484 9.652C58.3044 9.748 58.5284 9.904 58.7204 10.12C58.9124 10.328 59.0644 10.612 59.1764 10.972L58.8764 10.948L58.9724 10.756C59.0764 10.564 59.2084 10.392 59.3684 10.24C59.5364 10.08 59.7204 9.948 59.9204 9.844C60.1204 9.732 60.3284 9.648 60.5444 9.592C60.7604 9.536 60.9684 9.508 61.1684 9.508C61.6724 9.508 62.0924 9.608 62.4284 9.808C62.7644 10 63.0164 10.292 63.1844 10.684C63.3604 11.076 63.4484 11.552 63.4484 12.112V16H61.5164V12.268C61.5164 12.012 61.4804 11.8 61.4084 11.632C61.3364 11.464 61.2284 11.34 61.0844 11.26C60.9484 11.172 60.7764 11.128 60.5684 11.128C60.4004 11.128 60.2444 11.156 60.1004 11.212C59.9644 11.268 59.8444 11.344 59.7404 11.44C59.6444 11.536 59.5684 11.648 59.5124 11.776C59.4564 11.904 59.4284 12.048 59.4284 12.208V16H57.4964V12.256C57.4964 12.016 57.4604 11.812 57.3884 11.644C57.3164 11.476 57.2084 11.348 57.0644 11.26C56.9204 11.172 56.7524 11.128 56.5604 11.128C56.3924 11.128 56.2364 11.156 56.0924 11.212C55.9564 11.268 55.8364 11.344 55.7324 11.44C55.6364 11.536 55.5604 11.648 55.5044 11.776C55.4484 11.904 55.4204 12.044 55.4204 12.196V16H53.4884ZM65.0434 18.64V9.628H66.8674L66.9394 11.056L66.5794 10.948C66.6354 10.684 66.7714 10.444 66.9874 10.228C67.2034 10.012 67.4754 9.84 67.8034 9.712C68.1394 9.576 68.4914 9.508 68.8594 9.508C69.4034 9.508 69.8874 9.652 70.3114 9.94C70.7354 10.22 71.0674 10.608 71.3074 11.104C71.5554 11.592 71.6794 12.16 71.6794 12.808C71.6794 13.448 71.5554 14.016 71.3074 14.512C71.0674 15.008 70.7314 15.4 70.2994 15.688C69.8754 15.968 69.3874 16.108 68.8354 16.108C68.4754 16.108 68.1314 16.04 67.8034 15.904C67.4754 15.768 67.1994 15.584 66.9754 15.352C66.7514 15.12 66.6034 14.868 66.5314 14.596L66.9754 14.428V18.64H65.0434ZM68.3674 14.488C68.6554 14.488 68.9074 14.42 69.1234 14.284C69.3394 14.14 69.5074 13.944 69.6274 13.696C69.7474 13.448 69.8074 13.152 69.8074 12.808C69.8074 12.472 69.7474 12.18 69.6274 11.932C69.5074 11.676 69.3394 11.48 69.1234 11.344C68.9154 11.2 68.6634 11.128 68.3674 11.128C68.0714 11.128 67.8154 11.196 67.5994 11.332C67.3834 11.468 67.2154 11.664 67.0954 11.92C66.9754 12.176 66.9154 12.472 66.9154 12.808C66.9154 13.152 66.9754 13.448 67.0954 13.696C67.2154 13.944 67.3834 14.14 67.5994 14.284C67.8154 14.42 68.0714 14.488 68.3674 14.488ZM75.9536 16.12C75.2896 16.12 74.6976 15.976 74.1776 15.688C73.6656 15.4 73.2576 15.008 72.9536 14.512C72.6576 14.016 72.5096 13.448 72.5096 12.808C72.5096 12.168 72.6576 11.6 72.9536 11.104C73.2576 10.608 73.6656 10.216 74.1776 9.928C74.6976 9.64 75.2896 9.496 75.9536 9.496C76.6176 9.496 77.2056 9.64 77.7176 9.928C78.2376 10.216 78.6456 10.608 78.9416 11.104C79.2376 11.6 79.3856 12.168 79.3856 12.808C79.3856 13.448 79.2376 14.016 78.9416 14.512C78.6456 15.008 78.2376 15.4 77.7176 15.688C77.2056 15.976 76.6176 16.12 75.9536 16.12ZM75.9536 14.464C76.2416 14.464 76.4976 14.392 76.7216 14.248C76.9456 14.104 77.1216 13.908 77.2496 13.66C77.3776 13.412 77.4376 13.128 77.4296 12.808C77.4376 12.488 77.3776 12.204 77.2496 11.956C77.1216 11.7 76.9456 11.5 76.7216 11.356C76.4976 11.212 76.2416 11.14 75.9536 11.14C75.6656 11.14 75.4056 11.212 75.1736 11.356C74.9496 11.5 74.7736 11.7 74.6456 11.956C74.5176 12.204 74.4576 12.488 74.4656 12.808C74.4576 13.128 74.5176 13.412 74.6456 13.66C74.7736 13.908 74.9496 14.104 75.1736 14.248C75.4056 14.392 75.6656 14.464 75.9536 14.464ZM80.6411 16V9.628H82.4651L82.5491 11.704L82.1891 11.308C82.2851 10.964 82.4411 10.656 82.6571 10.384C82.8811 10.112 83.1411 9.896 83.4371 9.736C83.7331 9.576 84.0491 9.496 84.3851 9.496C84.5291 9.496 84.6611 9.508 84.7811 9.532C84.9091 9.556 85.0251 9.584 85.1291 9.616L84.6011 11.74C84.5131 11.684 84.3931 11.64 84.2411 11.608C84.0971 11.568 83.9451 11.548 83.7851 11.548C83.6091 11.548 83.4451 11.58 83.2931 11.644C83.1411 11.7 83.0131 11.784 82.9091 11.896C82.8051 12.008 82.7211 12.14 82.6571 12.292C82.6011 12.444 82.5731 12.616 82.5731 12.808V16H80.6411ZM86.8644 16V8.02H88.7844V16H86.8644ZM85.7364 11.308V9.628H90.0204V11.308H85.7364ZM93.411 16.108C92.875 16.108 92.395 15.968 91.971 15.688C91.555 15.4 91.223 15.008 90.975 14.512C90.727 14.008 90.603 13.44 90.603 12.808C90.603 12.16 90.727 11.588 90.975 11.092C91.223 10.596 91.563 10.208 91.995 9.928C92.427 9.64 92.919 9.496 93.471 9.496C93.775 9.496 94.051 9.54 94.299 9.628C94.555 9.716 94.779 9.84 94.971 10C95.163 10.152 95.327 10.332 95.463 10.54C95.599 10.74 95.699 10.956 95.763 11.188L95.367 11.14V9.628H97.275V16H95.331V14.464L95.763 14.452C95.699 14.676 95.595 14.888 95.451 15.088C95.307 15.288 95.131 15.464 94.923 15.616C94.715 15.768 94.483 15.888 94.227 15.976C93.971 16.064 93.699 16.108 93.411 16.108ZM93.939 14.488C94.235 14.488 94.491 14.42 94.707 14.284C94.923 14.148 95.091 13.956 95.211 13.708C95.331 13.452 95.391 13.152 95.391 12.808C95.391 12.464 95.331 12.168 95.211 11.92C95.091 11.664 94.923 11.468 94.707 11.332C94.491 11.188 94.235 11.116 93.939 11.116C93.651 11.116 93.399 11.188 93.183 11.332C92.975 11.468 92.811 11.664 92.691 11.92C92.571 12.168 92.511 12.464 92.511 12.808C92.511 13.152 92.571 13.452 92.691 13.708C92.811 13.956 92.975 14.148 93.183 14.284C93.399 14.42 93.651 14.488 93.939 14.488ZM98.9692 16V9.628H100.793L100.853 10.924L100.469 11.068C100.557 10.78 100.713 10.52 100.937 10.288C101.169 10.048 101.445 9.856 101.765 9.712C102.085 9.568 102.421 9.496 102.773 9.496C103.253 9.496 103.657 9.596 103.985 9.796C104.313 9.988 104.561 10.28 104.729 10.672C104.897 11.056 104.981 11.528 104.981 12.088V16H103.049V12.244C103.049 11.988 103.013 11.776 102.941 11.608C102.869 11.44 102.757 11.316 102.605 11.236C102.461 11.148 102.281 11.108 102.065 11.116C101.897 11.116 101.741 11.144 101.597 11.2C101.453 11.248 101.329 11.324 101.225 11.428C101.121 11.524 101.037 11.636 100.973 11.764C100.917 11.892 100.889 12.032 100.889 12.184V16H99.9412C99.7172 16 99.5252 16 99.3652 16C99.2052 16 99.0732 16 98.9692 16ZM107.114 16V8.02H109.034V16H107.114ZM105.986 11.308V9.628H110.27V11.308H105.986Z" fill="#327606"/>
</svg>
